<svg width="20" height="20" viewBox="0 0 20 20" fill="none" xmlns="http://www.w3.org/2000/svg">
<path d="M10.98 6.37681L15.81 1.54681C15.9837 1.3732 16.19 1.23551 16.4169 1.14161C16.6439 1.0477 16.8871 0.999419 17.1327 0.999512C17.3783 0.999605 17.6215 1.04807 17.8484 1.14215C18.0753 1.23623 18.2814 1.37407 18.455 1.54781C18.6286 1.72155 18.7663 1.92778 18.8602 2.15473C18.9541 2.38168 19.0024 2.62491 19.0023 2.87052C19.0022 3.11613 18.9537 3.35931 18.8597 3.58619C18.7656 3.81307 18.6277 4.0192 18.454 4.19281L13.624 9.02181C13.3426 9.30331 12.9901 9.50309 12.604 9.59981L11.106 9.97381C10.957 10.0109 10.801 10.0089 10.6531 9.96789C10.5052 9.9269 10.3703 9.84833 10.2618 9.73984C10.1532 9.63134 10.0745 9.4966 10.0333 9.34871C9.9922 9.20081 9.99002 9.0448 10.027 8.89581L10.402 7.39781C10.4979 7.01141 10.6978 6.65865 10.98 6.37781V6.37681ZM17 12.9998V7.05981L18 6.05981V12.9998C18 13.5302 17.7893 14.0389 17.4142 14.414C17.0391 14.7891 16.5304 14.9998 16 14.9998H13V16.9998H14.5C14.6326 16.9998 14.7598 17.0525 14.8536 17.1463C14.9473 17.24 15 17.3672 15 17.4998C15 17.6324 14.9473 17.7596 14.8536 17.8534C14.7598 17.9471 14.6326 17.9998 14.5 17.9998H5.5C5.36739 17.9998 5.24021 17.9471 5.14645 17.8534C5.05268 17.7596 5 17.6324 5 17.4998C5 17.3672 5.05268 17.24 5.14645 17.1463C5.24021 17.0525 5.36739 16.9998 5.5 16.9998H7V14.9998H4C3.46957 14.9998 2.96086 14.7891 2.58579 14.414C2.21071 14.0389 2 13.5302 2 12.9998V3.99981C2 3.46938 2.21071 2.96067 2.58579 2.5856C2.96086 2.21052 3.46957 1.99981 4 1.99981H13.943L12.943 2.99981H4C3.73478 2.99981 3.48043 3.10517 3.29289 3.2927C3.10536 3.48024 3 3.73459 3 3.99981V12.9998C3 13.265 3.10536 13.5194 3.29289 13.7069C3.48043 13.8945 3.73478 13.9998 4 13.9998H16C16.2652 13.9998 16.5196 13.8945 16.7071 13.7069C16.8946 13.5194 17 13.265 17 12.9998ZM12 14.9998H8V16.9998H12V14.9998Z" fill="white"/>
</svg>
